<svg width="20" height="20" viewBox="0 0 20 20" fill="none" xmlns="http://www.w3.org/2000/svg">
<path fill-rule="evenodd" clip-rule="evenodd" d="M10 8.12501L8.12504 11.4583H11.875L10 8.12501ZM8.89941 6.95291C9.37137 6.07641 10.6286 6.0764 11.1006 6.95291L13.3197 11.074C13.7681 11.9068 13.1649 12.9167 12.2191 12.9167H7.78092C6.83508 12.9167 6.2319 11.9068 6.68033 11.0741L8.89941 6.95291Z" fill="#5E6673"/>
<path fill-rule="evenodd" clip-rule="evenodd" d="M10 3.95832C6.66328 3.95832 3.95834 6.66327 3.95834 9.99999C3.95834 13.3367 6.66328 16.0417 10 16.0417C13.3367 16.0417 16.0417 13.3367 16.0417 9.99999C16.0417 6.66327 13.3367 3.95832 10 3.95832ZM2.29167 9.99999C2.29167 5.74279 5.74281 2.29166 10 2.29166C14.2572 2.29166 17.7083 5.74279 17.7083 9.99999C17.7083 14.2572 14.2572 17.7083 10 17.7083C5.74281 17.7083 2.29167 14.2572 2.29167 9.99999Z" fill="#5E6673"/>
</svg>
